mtllib materials.mtl
v -0.05109335 0.06995547 -0.003604472
v -0.0222573 0.07265747 0.03715311
v 0.00345245 0.02262878 0.004090935
v 0.02740155 0.0686087 0.03295694
v 0.04822432 0.061858 -0.01199681
v 0.01938824 0.05915606 -0.0527544
v -0.03027056 0.06320477 -0.04855824
v 0.02362563 0.1258329 -0.05207546
v -0.02586101 0.1317846 -0.04811981
v 0.05243354 0.1282235 -0.01127851
v 0.03175476 0.1365659 0.03347407
v -0.0177319 0.1425176 0.03742972
v -0.0465398 0.1401269 -0.003367215
v 0.004027292 0.1836607 -0.01069404
vn -0.613712 -0.6299339 0.4759632
vn 0.02685296 -0.5415042 0.840269
vn 0.6803493 -0.60969 0.4066978
vn 0.5487929 -0.7647685 -0.3375732
vn -0.1142083 -0.8209144 -0.5595142
vn -0.6303381 -0.7555162 -0.1785197
vn 0.07098115 0.9907216 -0.1158978
vn -0.08059578 0.01338594 -0.996657
vn 0.8170974 -0.04584057 -0.5746742
vn 0.9018875 -0.06142366 0.4275817
vn 0.08084231 -0.01094828 0.9966668
vn -0.8170462 0.05086566 0.5743242
vn -0.902017 0.06035049 -0.4274614
vn 0.1077813 0.9851251 -0.1338346
vn 0.005190897 0.5830991 -0.8123844
vn 0.6522379 0.5747268 -0.4942418
vn 0.7358409 0.6401893 0.2206715
vn 0.1409143 0.7201263 0.679383
vn -0.5767002 0.7311953 0.3643766
vn -0.6278106 0.6597177 -0.4130696
vt 0.05844198 -0.02193552
vt 0.06170832 -0.01814989
vt 0.05592908 -0.0151217
vt 0.06985466 0.03025739
vt 0.06821726 0.03498168
vt 0.06344183 0.03145962
vt 0.05811365 0.04962469
vt 0.05404843 0.05253569
vt 0.05310568 0.04644194
vt 0.01032541 0.06058522
vt 0.005517746 0.05921178
vt 0.01054387 0.05442284
vt -0.02548642 0.02665245
vt -0.02794039 0.02229607
vt -0.02050203 0.02182009
vt -0.03185608 -0.02301601
vt -0.03047968 -0.02782283
vt -0.02444241 -0.02378623
vt -0.01949665 0.001743232
vt -0.02052425 0.006636492
vt -0.02527575 0.008193192
vt -0.02899964 0.004856628
vt -0.02797203 -3.663646E-05
vt -0.02322054 -0.001593335
vt -0.0637594 0.0441675
vt -0.06122399 0.04847696
vt -0.06704497 0.05175694
vt -0.06974307 0.04754743
vt -0.01967443 0.07590703
vt -0.01536611 0.07844443
vt -0.01815568 0.08448135
vt -0.02247982 0.08197102
vt 0.06456771 0.04333115
vt 0.0680252 0.03971926
vt 0.07345313 0.04383162
vt 0.06988116 0.04733034
vt 0.06206881 0.04904495
vt 0.06460643 0.04473678
vt 0.07069781 0.04818711
vt 0.0679975 0.05239522
vt 0.01538064 0.0790877
vt 0.01969931 0.07656796
vt 0.02265628 0.08294797
vt 0.01832189 0.08544057
vt -0.06775344 0.03938917
vt -0.06429812 0.04300314
vt -0.06977333 0.04715649
vt -0.0733432 0.04365563
vt -0.02084889 -0.001815138
vt -0.02185536 0.003082513
vt -0.02660009 0.004659712
vt -0.03033835 0.001339256
vt -0.02933188 -0.003558398
vt -0.02458715 -0.005135596
vt -0.06922762 0.02700064
vt -0.06756339 0.03171553
vt -0.0749198 0.03117802
vt -0.06358394 -0.01385142
vt -0.0662172 -0.009601012
vt -0.07080485 -0.01535613
vt 0.0452969 -0.01839544
vt 0.04512129 -0.02339236
vt 0.05191805 -0.02160921
vt 0.03361661 0.03082509
vt 0.03635139 0.02663928
vt 0.04057003 0.03183777
vt -0.009864686 0.06267779
vt -0.005057254 0.06130352
vt -0.005774229 0.06797773
vt -0.05792039 0.04704261
vt -0.05377204 0.04983388
vt -0.05981732 0.05348162
o group1154384086
g mesh1154384086
usemtl mat9
f 3/3/1 2/2/1 1/1/1
f 3/6/2 4/5/2 2/4/2
f 3/9/3 5/8/3 4/7/3
f 3/12/4 6/11/4 5/10/4
f 3/15/5 7/14/5 6/13/5
f 3/18/6 1/17/6 7/16/6
f 1/24/7 2/23/7 4/22/7 5/21/7 6/20/7 7/19/7
f 9/28/8 8/27/8 6/26/8 7/25/8
f 8/32/9 10/31/9 5/30/9 6/29/9
f 10/36/10 11/35/10 4/34/10 5/33/10
f 11/40/11 12/39/11 2/38/11 4/37/11
f 12/44/12 13/43/12 1/42/12 2/41/12
f 13/48/13 9/47/13 7/46/13 1/45/13
f 13/54/14 12/53/14 11/52/14 10/51/14 8/50/14 9/49/14
f 14/57/15 8/56/15 9/55/15
f 14/60/16 10/59/16 8/58/16
f 14/63/17 11/62/17 10/61/17
f 14/66/18 12/65/18 11/64/18
f 14/69/19 13/68/19 12/67/19
f 14/72/20 9/71/20 13/70/20
