mtllib materials.mtl
v 0.001999989 0.0009999275 0.055
v 0.02949999 0.0009999275 0.0476314
v 0.02949999 -0.01900011 0.0476314
v 0.001999989 -0.01900011 0.055
v 0.04963139 0.0009999275 0.0275
v 0.04963139 -0.01900011 0.0275
v 0.05699999 0.0009999275 4.656613E-10
v 0.05699999 -0.01900011 0
v 0.04963139 0.0009999275 -0.0275
v 0.04963139 -0.01900011 -0.0275
v 0.02949999 0.0009999275 -0.04763139
v 0.02949999 -0.01900011 -0.04763139
v 0.001999989 0.0009999275 -0.055
v 0.001999989 -0.01900011 -0.055
v -0.02550001 0.0009999275 -0.04763139
v -0.02550001 -0.01900011 -0.04763139
v -0.04563141 0.0009999275 -0.02749999
v -0.04563141 -0.01900011 -0.02749999
v -0.053 0.0009999275 3.259629E-09
v -0.053 -0.01900011 2.793968E-09
v -0.04563141 0.0009999275 0.02749999
v -0.04563141 -0.01900011 0.02749999
v -0.0255 0.0009999275 0.04763141
v -0.0255 -0.01900011 0.04763141
v 0.03700002 -0.01900005 -0.325
v 0.03699997 -0.01900005 -0.065
v 0.03699997 0.0009999275 -0.065
v 0.03700002 0.0009999275 -0.325
v -0.03299998 -0.01900005 -0.325
v -0.03299998 0.0009999275 -0.325
v -0.03300002 0.0009999275 -0.065
v -0.03300002 -0.01900005 -0.065
v 0.03700004 -0.01900005 0.06500001
v 0.03699995 -0.01900005 0.325
v 0.03699995 0.0009999275 0.325
v 0.03700004 0.0009999275 0.06500001
v -0.03299996 -0.01900005 0.06499998
v -0.03299996 0.0009999871 0.06499998
v -0.03300005 0.0009999275 0.325
v -0.03300005 -0.01900011 0.325
v -0.323 -0.01899999 -0.03500003
v -0.06299998 -0.01900005 -0.03499998
v -0.06299996 0.0009999275 -0.03499997
v -0.323 0.0009999871 -0.03500002
v -0.323 -0.01900005 0.03499998
v -0.323 0.0009999275 0.03499999
v -0.06299998 0.0009999275 0.03500003
v -0.06299998 -0.01900011 0.03500003
v 0.327 -0.01900005 0.03500012
v 0.06699994 -0.01900005 0.0349999
v 0.06699994 0.0009999275 0.0349999
v 0.327 0.0009999275 0.03500012
v 0.327 -0.01900005 -0.03499989
v 0.327 0.0009999275 -0.03499989
v 0.067 0.0009999275 -0.03500011
v 0.067 -0.01900011 -0.0350001
vn 0.258819 -2.95874E-08 0.9659259
vn 0.7071069 -1.162613E-07 0.7071067
vn 0.9659259 1.175806E-07 0.258819
vn 0.9659259 8.433707E-08 -0.258819
vn 0.7071068 -1.01614E-08 -0.7071068
vn 0.258819 -3.659466E-08 -0.9659259
vn -0.2588192 6.280747E-08 -0.9659258
vn -0.7071069 1.092802E-07 -0.7071067
vn -0.9659259 8.183549E-08 -0.2588189
vn -0.9659259 1.41464E-07 0.258819
vn -0.7071068 3.524763E-08 0.7071068
vn -0.258819 -1.274903E-08 0.9659259
vn 0 1 -3.140286E-09
vn 0 -1 1.578374E-08
vn 1 -5.559285E-08 1.748456E-07
vn -1 4.16946E-08 -1.748456E-07
vn 1.330461E-07 -1 -9.312998E-10
vn 1.330461E-07 1 9.313463E-10
vn 1.932059E-07 0 -1
vn -1.599444E-07 0 1
vn 1 -5.559288E-08 3.496911E-07
vn -1 4.169463E-08 -3.496911E-07
vn 1.330461E-07 -1 -1.757768E-07
vn 1.330461E-07 1 1.757769E-07
vn 3.680515E-07 1.748456E-07 -1
vn -3.3479E-07 -1.748456E-07 1
vn 1.788139E-07 2.940982E-07 -1
vn -1.788139E-07 -3.079965E-07 1
vn -1.757769E-07 -1 -4.827373E-07
vn 1.757769E-07 1 2.166451E-07
vn -1 1.748457E-07 -1.971742E-07
vn 1 -1.748457E-07 1.639127E-07
vn -8.344649E-07 1.192527E-07 1
vn 8.344649E-07 -1.331509E-07 -1
vn 1.757767E-07 -1 3.078918E-07
vn -1.757769E-07 1 -4.179955E-08
vn 1 1.748456E-07 8.528253E-07
vn -1 -1.748456E-07 -8.195638E-07
vt 0.08711781 0.0239492
vt 0.08590169 0.0265234
vt 0.08409333 0.02566908
vt 0.08530946 0.02309488
vt 0.08448786 0.03045531
vt 0.08317234 0.03298016
vt 0.08139865 0.03205602
vt 0.08271416 0.02953117
vt 0.07215737 0.05240555
vt 0.07034154 0.05459832
vt 0.06880113 0.05332271
vt 0.07061697 0.05112995
vt 0.01329321 0.08802103
vt 0.01048754 0.08850446
vt 0.01014793 0.0865335
vt 0.01295359 0.08605006
vt -0.06614113 0.06015142
vt -0.0682477 0.05823626
vt -0.06690231 0.05675642
vt -0.06479575 0.05867158
vt -0.08342723 0.03340621
vt -0.08484158 0.03093537
vt -0.08310582 0.0299418
vt -0.08169147 0.03241264
vt -0.08590169 0.0265234
vt -0.08711781 0.0239492
vt -0.08530946 0.02309488
vt -0.08409333 0.02566908
vt -0.08317234 0.03298016
vt -0.08448786 0.03045531
vt -0.08271416 0.02953117
vt -0.08139865 0.03205602
vt -0.07034153 0.05459834
vt -0.07215736 0.05240557
vt -0.07061695 0.05112997
vt -0.06880113 0.05332273
vt -0.01048754 0.08850446
vt -0.01329321 0.08802103
vt -0.01295359 0.08605006
vt -0.01014793 0.0865335
vt 0.06824769 0.05823626
vt 0.06614112 0.06015142
vt 0.06479574 0.05867158
vt 0.06690231 0.05675641
vt 0.08484158 0.03093537
vt 0.08342723 0.03340622
vt 0.08169148 0.03241264
vt 0.08310582 0.0299418
vt 0.000845282 -0.01801523
vt 0.003418234 -0.019234
vt 0.006255856 -0.01900301
vt 0.008597814 -0.01738415
vt 0.00981658 -0.0148112
vt 0.009585587 -0.01197358
vt 0.00796673 -0.009631618
vt 0.00539378 -0.008412852
vt 0.002556157 -0.008643845
vt 0.000214199 -0.0102627
vt -0.001004567 -0.01283565
vt -0.0007735741 -0.01567328
vt 0.0007735751 -0.01567328
vt 0.001004568 -0.01283565
vt -0.0002141979 -0.0102627
vt -0.002556156 -0.008643845
vt -0.005393779 -0.008412853
vt -0.007966729 -0.009631618
vt -0.009585586 -0.01197358
vt -0.009816579 -0.0148112
vt -0.008597813 -0.01738415
vt -0.006255855 -0.01900301
vt -0.003418233 -0.019234
vt -0.0008452811 -0.01801523
vt 0.02452827 0.08939444
vt 0.04568534 0.07428224
vt 0.04684781 0.0759097
vt 0.02569075 0.0910219
vt -0.02452827 0.08939444
vt -0.02569075 0.0910219
vt -0.04684782 0.0759097
vt -0.04568534 0.07428224
vt -0.03383544 0.0004036171
vt -0.03618979 -0.006188576
vt -0.0117045 -0.01493333
vt -0.009350149 -0.008341134
vt 0.03383544 0.000403596
vt 0.009350156 -0.008341155
vt 0.01170451 -0.01493335
vt 0.0361898 -0.006188597
vt -0.08273452 0.02906888
vt -0.08452336 0.02996331
vt -0.08765386 0.02370232
vt -0.08586501 0.02280789
vt 0.08273451 0.02906888
vt 0.08586501 0.02280789
vt 0.08765386 0.02370232
vt 0.08452336 0.02996331
vt 0.05626389 0.06672612
vt 0.07742096 0.05161392
vt 0.07858343 0.05324138
vt 0.05742637 0.06835358
vt -0.05626389 0.06672612
vt -0.05742637 0.06835359
vt -0.07858343 0.05324138
vt -0.07742095 0.05161391
vt 0.002892484 -0.01271349
vt 0.000538126 -0.01930569
vt 0.02502341 -0.02805044
vt 0.02737777 -0.02145825
vt -0.002892475 -0.01271352
vt -0.02737776 -0.02145827
vt -0.0250234 -0.02805047
vt -0.0005381167 -0.01930571
vt -0.08273451 0.02906889
vt -0.08452336 0.02996332
vt -0.08765386 0.02370233
vt -0.08586501 0.0228079
vt 0.08273452 0.02906889
vt 0.08586501 0.0228079
vt 0.08765386 0.02370233
vt 0.08452336 0.02996332
vt -0.09883421 -0.003130498
vt -0.08720665 0.02012461
vt -0.0889955 0.02101904
vt -0.1006231 -0.002236072
vt 0.0988342 -0.003130502
vt 0.1006231 -0.002236073
vt 0.0889955 0.02101904
vt 0.08720665 0.02012461
vt -0.01863309 -0.04325285
vt -0.0120409 -0.04560721
vt -0.003296143 -0.02112192
vt -0.009888337 -0.01876757
vt 0.01863307 -0.04325286
vt 0.009888312 -0.01876757
vt 0.003296119 -0.02112193
vt 0.01204087 -0.04560722
vt -0.04812654 0.07253851
vt -0.04928901 0.07416598
vt -0.05498515 0.07009731
vt -0.05382267 0.06846984
vt 0.04812653 0.07253851
vt 0.05382266 0.06846984
vt 0.05498514 0.07009731
vt 0.04928901 0.07416598
vt 0.06976531 0.05500729
vt 0.08139287 0.03175218
vt 0.08318172 0.0326466
vt 0.07155417 0.05590171
vt -0.06976531 0.05500729
vt -0.07155417 0.05590171
vt -0.08318172 0.0326466
vt -0.08139287 0.03175218
vt 0.009821061 0.01560601
vt 0.003228869 0.01796037
vt -0.005515895 -0.006524917
vt 0.001076297 -0.008879276
vt -0.009821041 0.01560602
vt -0.001076274 -0.008879269
vt 0.005515918 -0.006524908
vt -0.003228849 0.01796038
vt 0.05382274 0.06846979
vt 0.05498521 0.07009725
vt 0.04928908 0.07416593
vt 0.04812661 0.07253847
vt -0.05382274 0.06846979
vt -0.04812661 0.07253847
vt -0.04928909 0.07416593
vt -0.05498522 0.07009726
o group39806612
g mesh39806612
usemtl mat17
f 4/4/1 3/3/1 2/2/1 1/1/1
f 3/8/2 6/7/2 5/6/2 2/5/2
f 6/12/3 8/11/3 7/10/3 5/9/3
f 8/16/4 10/15/4 9/14/4 7/13/4
f 10/20/5 12/19/5 11/18/5 9/17/5
f 12/24/6 14/23/6 13/22/6 11/21/6
f 14/28/7 16/27/7 15/26/7 13/25/7
f 16/32/8 18/31/8 17/30/8 15/29/8
f 18/36/9 20/35/9 19/34/9 17/33/9
f 20/40/10 22/39/10 21/38/10 19/37/10
f 22/44/11 24/43/11 23/42/11 21/41/11
f 24/48/12 4/47/12 1/46/12 23/45/12
f 1/60/13 2/59/13 5/58/13 7/57/13 9/56/13 11/55/13 13/54/13 15/53/13 17/52/13 19/51/13 21/50/13 23/49/13
f 24/72/14 22/71/14 20/70/14 18/69/14 16/68/14 14/67/14 12/66/14 10/65/14 8/64/14 6/63/14 3/62/14 4/61/14
f 28/76/15 27/75/15 26/74/15 25/73/15
f 32/80/16 31/79/16 30/78/16 29/77/16
f 26/84/17 32/83/17 29/82/17 25/81/17
f 30/88/18 31/87/18 27/86/18 28/85/18
f 29/92/19 30/91/19 28/90/19 25/89/19
f 27/96/20 31/95/20 32/94/20 26/93/20
f 36/100/21 35/99/21 34/98/21 33/97/21
f 40/104/22 39/103/22 38/102/22 37/101/22
f 34/108/23 40/107/23 37/106/23 33/105/23
f 38/112/24 39/111/24 35/110/24 36/109/24
f 37/116/25 38/115/25 36/114/25 33/113/25
f 35/120/26 39/119/26 40/118/26 34/117/26
f 44/124/27 43/123/27 42/122/27 41/121/27
f 48/128/28 47/127/28 46/126/28 45/125/28
f 42/132/29 48/131/29 45/130/29 41/129/29
f 46/136/30 47/135/30 43/134/30 44/133/30
f 45/140/31 46/139/31 44/138/31 41/137/31
f 43/144/32 47/143/32 48/142/32 42/141/32
f 52/148/33 51/147/33 50/146/33 49/145/33
f 56/152/34 55/151/34 54/150/34 53/149/34
f 50/156/35 56/155/35 53/154/35 49/153/35
f 54/160/36 55/159/36 51/158/36 52/157/36
f 53/164/37 54/163/37 52/162/37 49/161/37
f 51/168/38 55/167/38 56/166/38 50/165/38
