mtllib materials.mtl
v -0.02241393 0.03614831 -0.031711
v -0.006978996 0.05343819 -0.05075891
v 0.02273292 -0.006259561 0.008446239
v -0.004501849 0.0001804829 -0.002360843
v 0.0188637 0.04358816 -0.06238354
v 0.04573792 -0.01040292 -0.01035809
v 0.02927145 0.01644826 -0.05496027
v 0.04150815 -0.008106232 -0.03996947
v 0.01383651 -0.0008416176 -0.03591236
v 0.01427338 -0.001666188 -0.05077655
v -0.01200617 0.009008408 -0.02428772
v -0.008731619 0.002477169 -0.03197224
v 0.00292322 -0.01600635 -0.04940889
v -0.02695521 -0.01734865 -0.05174915
v 0.01860267 0.001961708 -0.06761073
v 0.004403673 0.01858723 -0.08815285
v -0.02547476 0.01724494 -0.09049311
v -0.04115421 -0.0007231236 -0.07229128
v -0.02357438 0.02830088 0.01795986
v -0.004554801 0.05139959 0.02012798
v 0.0246736 -0.005690813 0.03439654
v -0.004045784 -0.00649786 0.02576257
v 0.01742267 0.05467677 -2.770871E-05
v 0.04635063 -0.001723289 0.01404057
v 0.02038054 0.03485513 -0.0223515
v 0.03930826 0.001437187 -0.01494936
v 0.001360953 0.0117563 -0.02451961
v 0.01058887 0.0006301403 -0.02358333
v -0.0206165 0.008479118 -0.004363947
v -0.01108815 -0.003337383 -0.003227368
v -0.01231296 0.01997709 -0.03477811
v -0.03807738 0.01799715 -0.01953756
v -0.003229991 0.04647982 -0.04550683
v -0.01991145 0.07100272 -0.04099496
v -0.04567588 0.06902277 -0.02575441
v -0.05475887 0.04252017 -0.01502578
v -0.02181917 0.007049799 -0.05292962
v -0.0507864 0.0008383989 -0.04820537
v -0.01404773 0.0318197 -0.06796471
v -0.03524353 0.05037844 -0.07827555
v -0.06421077 0.04416704 -0.07355129
v -0.07198223 0.01939714 -0.05851633
v -0.01958137 -0.02418172 -0.06535777
v -0.04702374 -0.03560197 -0.06941918
v -0.0122366 0.002045751 -0.07793438
v -0.03233426 0.01685321 -0.09457243
v -0.05977663 0.005432963 -0.09863383
v -0.06712138 -0.02079451 -0.08605736
v -0.0751308 0.04109216 0.01185274
v -0.06268125 0.06529617 -0.0007636696
v -0.0355822 0.00618577 0.04575188
v -0.06163997 0.009509444 0.03126237
v -0.03733562 0.06260395 -0.01658615
v -0.0100766 0.003169894 0.03024804
v -0.02443962 0.03570759 -0.01979228
v -0.0106288 0.003477454 0.000254713
v -0.03688918 0.01150358 -0.007175863
v -0.03668658 0.006801128 -0.0142348
v -0.06223481 0.0141958 0.008646607
v -0.06219216 0.009817004 0.001269028
v -0.04527348 0.001782179 -0.0208411
v -0.07462686 -0.001227736 -0.01542635
v -0.03571554 0.02187204 -0.04096677
v -0.05551099 0.03895211 -0.05567767
v -0.08486436 0.0359422 -0.05026292
v -0.09442229 0.01585233 -0.03013725
v -0.04432525 -0.03012204 -0.03603178
v -0.07279141 -0.0394665 -0.03756786
v -0.03518712 -0.007034779 -0.05286846
v -0.05451516 0.006708145 -0.07124122
v -0.08298131 -0.002636313 -0.07277731
v -0.09211945 -0.02572358 -0.05594062
vn -0.02776467 0.6715689 0.7404217
vn 0.5040446 0.7190191 0.4784879
vn 0.9277305 0.3489724 -0.1324177
vn -0.1671735 -0.08838075 -0.9819582
vn 0.08823989 0.9511759 -0.2957672
vn -0.9136474 -0.3725242 0.162709
vn -0.498588 -0.4013529 -0.7683267
vn -0.2128228 -0.9760401 -0.04530201
vn 0.01036118 -0.7054824 0.7086517
vn 0.7800386 -0.6226301 0.06222261
vn 0.8005114 0.06972764 -0.5952476
vn -0.002008012 0.731237 -0.6821206
vn -0.8112233 0.5676537 -0.1403071
vn -0.8358175 -0.1289365 0.5336519
vn 0.08529851 -0.7448288 -0.6617811
vn -0.262983 0.09116233 0.960484
vn 0.5619228 0.4596606 0.6877172
vn 0.8831046 0.4210419 -0.2070026
vn 0.2360717 -0.03258425 -0.9711893
vn -0.5413743 -0.5034316 -0.6734022
vn -0.8457147 -0.4841115 0.2245055
vn -0.6064456 0.5529765 -0.5713501
vn 0.06502666 -0.9901809 -0.1237469
vn -0.1919208 -0.8995233 -0.3924592
vn 0.4803432 -0.406298 -0.7772982
vn 0.705682 0.5684664 -0.4229172
vn 0.1027127 0.954405 0.2802876
vn -0.5658512 0.4408443 0.6967559
vn -0.701649 -0.5697085 0.4279264
vn -0.4909717 -0.1770405 -0.8529968
vn 0.2823469 -0.862388 0.4201992
vn 0.9017452 -0.3900492 -0.1863257
vn 0.6504812 0.494277 -0.5766842
vn -0.2678401 0.8899497 -0.3691224
vn -0.9117895 0.3790789 0.1579215
vn -0.6599581 -0.5054038 0.5558979
vn -0.03031861 -0.5116742 -0.8586444
vn 0.1449129 -0.4301271 0.8910617
vn 0.9261385 -0.07429969 0.3697934
vn 0.6859794 0.3219281 -0.6525294
vn -0.1596467 0.4782977 -0.8635649
vn -0.9408047 0.104243 -0.3225212
vn -0.7111906 -0.4325885 0.5541435
vn 0.3209415 -0.4810768 -0.8158197
vn -0.2960222 0.4713954 0.8307571
vn 0.4419386 0.67125 0.5950745
vn 0.9105204 0.4133969 0.007457685
vn 0.1879142 -0.261624 -0.9467002
vn -0.2287321 0.8222591 -0.5211253
vn -0.9288614 -0.3668186 -0.05158023
vn -0.5349283 -0.1575352 -0.830081
vn -0.1221785 -0.9924765 -0.007929847
vn 0.1878385 -0.8619535 0.4709065
vn 0.8468037 -0.5160428 -0.1289321
vn 0.7162332 0.3791672 -0.5858688
vn -0.1776469 0.8780298 -0.4444157
vn -0.8622212 0.4977635 0.09384126
vn -0.7189215 -0.3826209 0.5803045
vn -0.06184871 -0.6915408 -0.7196848
vn 0.1567677 -0.4591651 0.8744091
vn 0.9362062 -0.123807 0.3289224
vn 0.7409019 0.2904491 -0.6055606
vn -0.1573862 0.4626755 -0.8724455
vn -0.939635 0.1393249 -0.3125293
vn -0.7521294 -0.367572 0.5469846
vn 0.2473534 -0.6329201 -0.7336405
vt 0.1028596 0.05456287
vt 0.1042469 0.05720679
vt 0.09552325 0.05538146
vt 0.0979725 0.05367389
vt 0.1133366 0.006565984
vt 0.1118721 0.00918394
vt 0.1041487 0.007238013
vt 0.1047142 0.004292039
vt 0.1145704 0.0767084
vt 0.112396 0.07464299
vt 0.1107604 0.07197987
vt 0.1118988 0.06920538
vt -0.1290186 0.06195004
vt -0.1281575 0.05947457
vt -0.1280703 0.05975769
vt -0.126269 0.06166167
vt -0.02372566 -0.02310183
vt -0.0245752 -0.02595578
vt -0.0237383 -0.02541666
vt -0.0223132 -0.02280213
vt -0.117404 0.06504778
vt -0.1196807 0.06699298
vt -0.1174125 0.0625678
vt -0.1164176 0.06539223
vt -0.1281922 0.04495146
vt -0.1262558 0.04724279
vt -0.1272719 0.05006546
vt -0.1302245 0.0505968
vt -0.1321609 0.04830547
vt -0.1311448 0.0454828
vt -0.03098368 -0.02702768
vt -0.02885529 -0.02491344
vt -0.02962208 -0.02201309
vt -0.03251726 -0.02122698
vt -0.03464564 -0.02334121
vt -0.03387885 -0.02624156
vt 0.09108604 0.002073269
vt 0.08931394 0.004491786
vt 0.08740801 0.003199792
vt 0.08745144 0.0002018456
vt 0.02957077 0.1023853
vt 0.02860856 0.1052268
vt 0.02678552 0.1039966
vt 0.0276432 0.1011218
vt -0.09562557 0.1053097
vt -0.09821545 0.1068103
vt -0.09910984 0.1030499
vt -0.09611932 0.1031761
vt -0.08642213 0.001915385
vt -0.08814483 -0.0005397595
vt -0.08293466 -0.002810893
vt -0.08295883 0.0001882502
vt -0.04303758 0.1067545
vt -0.04388226 0.1038758
vt -0.03848846 0.1017589
vt -0.0377508 0.1046668
vt 0.09242009 0.1104
vt 0.0899205 0.1087457
vt 0.0910839 0.1048273
vt 0.09408125 0.1048502
vt -0.09050805 0.0516874
vt -0.08890221 0.05422142
vt -0.09029383 0.05687913
vt -0.09329128 0.05700281
vt -0.09489711 0.05446879
vt -0.09350549 0.05181108
vt 0.1271346 0.06720401
vt 0.128083 0.07004897
vt 0.1215242 0.0696653
vt 0.1230709 0.06709604
vt 0.1297931 0.03614786
vt 0.1293453 0.03911426
vt 0.1228656 0.03870041
vt 0.1232362 0.03572338
vt 0.1322584 0.02213682
vt 0.1299682 0.02407141
vt 0.1263327 0.02263321
vt 0.1262675 0.01963598
vt -0.1286367 0.06592079
vt -0.1275955 0.06311201
vt -0.1261753 0.06334608
vt -0.1247291 0.06596942
vt -0.1250908 0.03505669
vt -0.1254597 0.03207946
vt -0.1239697 0.03239121
vt -0.1236781 0.035377
vt -0.1053305 -0.07145746
vt -0.1056314 -0.07443507
vt -0.1018705 -0.07290415
vt -0.1039818 -0.07078312
vt -0.08783711 0.06594242
vt -0.08641344 0.06858309
vt -0.0879885 0.07113637
vt -0.09098722 0.07104897
vt -0.09241089 0.0684083
vt -0.09083585 0.06585503
vt -0.02317818 0.01099381
vt -0.02131233 0.01334298
vt -0.02241385 0.01613344
vt -0.02538121 0.01657473
vt -0.02724706 0.01422555
vt -0.02614554 0.0114351
vt -0.07447218 0.00463881
vt -0.07506909 0.007577884
vt -0.0768699 0.00698672
vt -0.07688623 0.003987688
vt -0.09493136 0.09350415
vt -0.09516714 0.0964886
vt -0.09851371 0.09546359
vt -0.09675968 0.09303749
vt -0.07927395 -0.08730816
vt -0.08226233 -0.08757068
vt -0.08018111 -0.09296093
vt -0.07825412 -0.0906618
vt 0.05480124 0.005994378
vt 0.0539919 0.003105731
vt 0.06022822 0.001631023
vt 0.06041473 0.004625104
vt 0.08132581 0.1042251
vt 0.08130246 0.1012267
vt 0.08591471 0.1000667
vt 0.08752327 0.1025972
vt 0.08346748 -0.08675565
vt 0.08047619 -0.08652958
vt 0.07996179 -0.08897731
vt 0.08191691 -0.09125251
vt -0.1321809 0.05470567
vt -0.1311621 0.05752739
vt -0.1330964 0.05982053
vt -0.1360495 0.05929195
vt -0.1370682 0.05647023
vt -0.135134 0.05417709
vt 0.05303304 0.02258798
vt 0.05199859 0.02540275
vt 0.04971818 0.02458891
vt 0.0496009 0.02159237
vt 0.006022453 0.1300201
vt 0.005647189 0.1329965
vt 0.002998151 0.1318366
vt 0.003844718 0.1289586
vt -0.1206588 -0.03255679
vt -0.1234299 -0.03369839
vt -0.1205044 -0.03715187
vt -0.118748 -0.0347234
vt -0.04596552 0.02388055
vt -0.0469591 0.02105028
vt -0.04139867 0.01981007
vt -0.04156741 0.02280493
vt -0.01249657 0.1332414
vt -0.01278878 0.1302557
vt -0.007791878 0.1287529
vt -0.007025129 0.1316532
vt 0.1201656 -0.04102397
vt 0.117448 -0.03975816
vt 0.114991 -0.04235204
vt 0.1166314 -0.04486127
vt -0.117186 0.05534603
vt -0.1163353 0.05822288
vt -0.1184013 0.06039806
vt -0.1213181 0.05969641
vt -0.1221688 0.05681957
vt -0.1201028 0.05464438
vt 0.1157737 0.03082473
vt 0.1153246 0.03377876
vt 0.1120431 0.03306575
vt 0.1116099 0.03010934
vt 0.1022415 0.09599675
vt 0.1031381 0.09885956
vt 0.1001836 0.09778167
vt 0.09901832 0.0950173
vt -0.1321714 0.02945981
vt -0.1348391 0.02809978
vt -0.1318069 0.02591993
vt -0.1294933 0.02782096
vt -0.1140414 0.03152544
vt -0.1144457 0.02856272
vt -0.1098585 0.02793838
vt -0.1103657 0.03088522
vt -0.09814471 0.1037226
vt -0.09738483 0.1008205
vt -0.09252545 0.1002194
vt -0.0935601 0.1030353
vt 0.129715 -0.01632848
vt 0.1275019 -0.01430743
vt 0.1235911 -0.01592251
vt 0.1252797 -0.01839858
vt -0.1026998 0.07506127
vt -0.101756 0.07790895
vt -0.1037502 0.08015013
vt -0.1066883 0.07954364
vt -0.1076321 0.07669596
vt -0.1056378 0.07445478
vt 0.106805 0.07530462
vt 0.1084235 0.07781547
vt 0.1005987 0.076198
vt 0.1029774 0.07439084
vt 0.1194164 0.01491714
vt 0.1185882 0.01780056
vt 0.1107647 0.0159345
vt 0.1116389 0.01306469
vt 0.1357681 0.02857824
vt 0.1327688 0.02855784
vt 0.1295141 0.0261667
vt 0.1298049 0.02318143
vt -0.1237279 0.07049678
vt -0.122034 0.06815185
vt -0.1218765 0.06790121
vt -0.1198094 0.06992477
vt -0.06655861 0.01628144
vt -0.06795887 0.01362838
vt -0.06710202 0.01366443
vt -0.06571151 0.01632261
vt -0.1304863 0.04320671
vt -0.1334581 0.04356794
vt -0.130561 0.04089753
vt -0.129921 0.04382199
vt -0.1328531 0.05226467
vt -0.1313988 0.05488859
vt -0.132944 0.05746003
vt -0.1359435 0.05740757
vt -0.1373978 0.05478365
vt -0.1358526 0.0522122
vt -0.01930316 -0.02515602
vt -0.01700092 -0.02323256
vt -0.01751556 -0.02027704
vt -0.02033244 -0.01924497
vt -0.02263469 -0.02116842
vt -0.02212005 -0.02412395
vt 0.05986848 0.007231684
vt 0.05852776 0.009915171
vt 0.05680849 0.009168068
vt 0.05693873 0.006171125
vt 0.01112595 0.1169732
vt 0.01066444 0.1199373
vt 0.00812209 0.1188398
vt 0.009443388 0.1161466
vt -0.1331994 0.0147174
vt -0.1361957 0.01483459
vt -0.1346215 0.01017706
vt -0.1323159 0.01209434
vt -0.05604067 0.008909186
vt -0.05734999 0.006210039
vt -0.05143786 0.004453437
vt -0.05134438 0.007451934
vt -0.01867103 0.1207252
vt -0.01905289 0.1177496
vt -0.01407595 0.116031
vt -0.01282558 0.118758
vt 0.1360291 0.01330304
vt 0.1330319 0.01320647
vt 0.132016 0.0102619
vt 0.1343077 0.00832776
vt -0.1041304 0.04034608
vt -0.1030993 0.0431633
vt -0.1050235 0.04546491
vt -0.1079789 0.04494932
vt -0.10901 0.04213209
vt -0.1070858 0.03983048
vt 0.1153813 0.02724059
vt 0.114648 0.03014564
vt 0.1112108 0.02933432
vt 0.1110536 0.02634228
vt 0.09702767 0.09812711
vt 0.09705703 0.1011269
vt 0.09412735 0.1000351
vt 0.09365373 0.09707277
vt -0.1290472 0.04729848
vt -0.1317632 0.04602681
vt -0.1292939 0.04343348
vt -0.1268108 0.04511504
vt -0.116037 0.03011795
vt -0.1167668 0.02721193
vt -0.1123895 0.02631505
vt -0.1125515 0.02930693
vt -0.09529805 0.1030165
vt -0.09532673 0.1000166
vt -0.09053667 0.09899097
vt -0.09095351 0.1019619
vt 0.1344097 0.01872865
vt 0.131949 0.02044385
vt 0.1285217 0.01764945
vt 0.130674 0.01556033
vt -0.09307104 0.0643072
vt -0.09203377 0.06712217
vt -0.09395297 0.06942796
vt -0.09690945 0.06891878
vt -0.09794672 0.06610381
vt -0.09602751 0.06379802
o group1114270857
g mesh1114270857
usemtl mat18
f 4/4/1 3/3/1 2/2/1 1/1/1
f 3/8/2 6/7/2 5/6/2 2/5/2
f 6/12/3 8/11/3 7/10/3 5/9/3
f 8/16/4 10/15/4 9/14/4 7/13/4
f 10/20/5 12/19/5 11/18/5 9/17/5
f 12/24/6 4/23/6 1/22/6 11/21/6
f 1/30/7 2/29/7 5/28/7 7/27/7 9/26/7 11/25/7
f 12/36/8 10/35/8 8/34/8 6/33/8 3/32/8 4/31/8
f 14/40/9 13/39/9 9/38/9 11/37/9
f 13/44/10 15/43/10 7/42/10 9/41/10
f 15/48/11 16/47/11 5/46/11 7/45/11
f 16/52/12 17/51/12 2/50/12 5/49/12
f 17/56/13 18/55/13 1/54/13 2/53/13
f 18/60/14 14/59/14 11/58/14 1/57/14
f 18/66/15 17/65/15 16/64/15 15/63/15 13/62/15 14/61/15
o group1632314752
g mesh1632314752
usemtl mat18
f 22/70/16 21/69/16 20/68/16 19/67/16
f 21/74/17 24/73/17 23/72/17 20/71/17
f 24/78/18 26/77/18 25/76/18 23/75/18
f 26/82/19 28/81/19 27/80/19 25/79/19
f 28/86/20 30/85/20 29/84/20 27/83/20
f 30/90/21 22/89/21 19/88/21 29/87/21
f 19/96/22 20/95/22 23/94/22 25/93/22 27/92/22 29/91/22
f 30/102/23 28/101/23 26/100/23 24/99/23 21/98/23 22/97/23
f 32/106/24 31/105/24 27/104/24 29/103/24
f 31/110/25 33/109/25 25/108/25 27/107/25
f 33/114/26 34/113/26 23/112/26 25/111/26
f 34/118/27 35/117/27 20/116/27 23/115/27
f 35/122/28 36/121/28 19/120/28 20/119/28
f 36/126/29 32/125/29 29/124/29 19/123/29
f 38/136/31 37/135/31 31/134/31 32/133/31
f 37/140/32 39/139/32 33/138/32 31/137/32
f 39/144/33 40/143/33 34/142/33 33/141/33
f 40/148/34 41/147/34 35/146/34 34/145/34
f 41/152/35 42/151/35 36/150/35 35/149/35
f 42/156/36 38/155/36 32/154/36 36/153/36
f 44/166/38 43/165/38 37/164/38 38/163/38
f 43/170/39 45/169/39 39/168/39 37/167/39
f 45/174/40 46/173/40 40/172/40 39/171/40
f 46/178/41 47/177/41 41/176/41 40/175/41
f 47/182/42 48/181/42 42/180/42 41/179/42
f 48/186/43 44/185/43 38/184/43 42/183/43
usemtl mat1
f 36/132/30 35/131/30 34/130/30 33/129/30 31/128/30 32/127/30
f 42/162/37 41/161/37 40/160/37 39/159/37 37/158/37 38/157/37
f 48/192/44 47/191/44 46/190/44 45/189/44 43/188/44 44/187/44
o group1953587702
g mesh1953587702
usemtl mat18
f 52/196/45 51/195/45 50/194/45 49/193/45
f 51/200/46 54/199/46 53/198/46 50/197/46
f 54/204/47 56/203/47 55/202/47 53/201/47
f 56/208/48 58/207/48 57/206/48 55/205/48
f 58/212/49 60/211/49 59/210/49 57/209/49
f 60/216/50 52/215/50 49/214/50 59/213/50
f 49/222/51 50/221/51 53/220/51 55/219/51 57/218/51 59/217/51
f 60/228/52 58/227/52 56/226/52 54/225/52 51/224/52 52/223/52
f 62/232/53 61/231/53 57/230/53 59/229/53
f 61/236/54 63/235/54 55/234/54 57/233/54
f 63/240/55 64/239/55 53/238/55 55/237/55
f 64/244/56 65/243/56 50/242/56 53/241/56
f 65/248/57 66/247/57 49/246/57 50/245/57
f 66/252/58 62/251/58 59/250/58 49/249/58
f 66/258/59 65/257/59 64/256/59 63/255/59 61/254/59 62/253/59
f 68/262/60 67/261/60 61/260/60 62/259/60
f 67/266/61 69/265/61 63/264/61 61/263/61
f 69/270/62 70/269/62 64/268/62 63/267/62
f 70/274/63 71/273/63 65/272/63 64/271/63
f 71/278/64 72/277/64 66/276/64 65/275/64
f 72/282/65 68/281/65 62/280/65 66/279/65
f 72/288/66 71/287/66 70/286/66 69/285/66 67/284/66 68/283/66
